<?xml version="1.0" encoding="UTF-8"?>
<svg version="1.1" xmlns="http://www.w3.org/2000/svg" width="1024" height="1024">
<path d="M0 0 C337.92 0 675.84 0 1024 0 C1024 337.92 1024 675.84 1024 1024 C686.08 1024 348.16 1024 0 1024 C0 686.08 0 348.16 0 0 Z " fill="#121D24" transform="translate(0,0)"/>
<path d="M0 0 C0.90621094 -0.03996094 1.81242187 -0.07992188 2.74609375 -0.12109375 C6.74129785 0.67129763 9.08111678 2.30840429 11.5625 5.4375 C13.6567797 9.37069656 15.23076251 13.46359726 16.8125 17.625 C17.2763208 18.81085693 17.7401416 19.99671387 18.21801758 21.21850586 C19.18774492 23.70348347 20.15073817 26.19016774 21.10595703 28.68066406 C22.52170706 32.35630849 24.00492877 36.00270148 25.49609375 39.6484375 C26.41493076 41.93194249 27.33293181 44.21578407 28.25 46.5 C28.6840918 47.55018311 29.11818359 48.60036621 29.56542969 49.68237305 C32.35630962 56.77519504 34.35328174 63.8025355 31.5 71.1875 C25.18280206 78.52360083 18.48551856 81.45039939 9.5625 84.8125 C7.56809514 85.58351061 5.57592557 86.36011799 3.58381653 87.13703918 C2.16545549 87.68998854 0.74648505 88.24137693 -0.67304993 88.79130554 C-8.69701509 91.90592614 -16.65335216 95.18265297 -24.61050415 98.46340942 C-28.79880326 100.19001851 -32.98944633 101.91092333 -37.1796875 103.6328125 C-37.9860817 103.96436844 -38.79247589 104.29592438 -39.62330627 104.63752747 C-54.08234751 110.58208374 -68.56454049 116.46952267 -83.05859375 122.328125 C-86.60159201 123.76034368 -90.14456498 125.19262489 -93.6875 126.625 C-94.5832373 126.98711578 -95.47897461 127.34923157 -96.40185547 127.72232056 C-109.36672711 132.96496292 -122.31544568 138.24552261 -135.25 143.5625 C-147.84208025 148.73841685 -160.44390445 153.88904103 -173.0625 159 C-173.81322784 159.30412811 -174.56395569 159.60825623 -175.33743286 159.92160034 C-183.25128634 163.12718894 -191.16690664 166.32839729 -199.08346558 169.52729797 C-202.47010577 170.89609559 -205.85627233 172.2660624 -209.24237061 173.63619995 C-211.61894753 174.59727767 -213.99622556 175.55660552 -216.37353516 176.51586914 C-217.83760231 177.10814372 -219.30163409 177.70050573 -220.765625 178.29296875 C-221.4109317 178.5527652 -222.0562384 178.81256165 -222.72109985 179.08023071 C-226.23516476 180.50470711 -229.71386954 181.99234921 -233.17694092 183.5370636 C-234.37805574 184.07237686 -234.37805574 184.07237686 -235.60343552 184.61850452 C-236.2086768 184.88877303 -236.81391808 185.15904154 -237.4375 185.4375 C-236.83249503 185.43771737 -236.22749006 185.43793474 -235.60415161 185.43815869 C-199.75523081 185.45167137 -163.9064302 185.49113687 -128.0575804 185.56435562 C-123.75420762 185.57312249 -119.45083442 185.58167227 -115.14746094 185.59008789 C-114.29072836 185.59176695 -113.43399578 185.59344602 -112.55130161 185.59517596 C-98.67494987 185.62185365 -84.79863943 185.63094159 -70.92226468 185.63354143 C-56.68628165 185.63659971 -42.45041815 185.65853189 -28.2144891 185.69802457 C-19.42845824 185.72180232 -10.6426659 185.73081712 -1.85660727 185.72101311 C4.16642738 185.71570179 10.18924808 185.72870554 16.21222182 185.7561629 C19.6884774 185.77146789 23.16425422 185.77864811 26.64052391 185.76409721 C30.40928447 185.75253109 34.17668829 185.77151179 37.94534302 185.79826355 C39.04456813 185.78759029 40.14379324 185.77691703 41.27632821 185.76592034 C49.53004836 185.87555843 49.53004836 185.87555843 53.22607231 188.78995228 C57.09285117 193.17163359 56.71093309 197.24622561 56.70967102 202.80381775 C56.71334771 203.66771089 56.7170244 204.53160402 56.7208125 205.42167574 C56.7318601 208.32791674 56.73569507 211.23412199 56.73950195 214.14038086 C56.74576599 216.21984979 56.75241273 218.2993176 56.75941467 220.37878418 C56.78047142 227.21996275 56.79082122 234.06114158 56.80078125 240.90234375 C56.80482874 243.25810826 56.80894566 245.61387265 56.81313133 247.96963692 C56.83218959 259.04134561 56.84641711 270.11304762 56.8547433 281.18476957 C56.86450684 293.95674233 56.89080075 306.72854137 56.93124419 319.50045294 C56.96143942 329.37577997 56.97621557 339.25105733 56.97952431 349.12642962 C56.98187167 355.02226594 56.99079083 360.91791682 57.01598549 366.81370354 C57.03932946 372.36641928 57.0434739 377.91882834 57.03322411 383.47158051 C57.03273011 385.50321284 57.03901006 387.53486058 57.05278015 389.5664463 C57.15235142 405.13554869 55.97091853 417.55820766 44.9375 429.5 C35.36595864 438.82200397 24.25458457 440.73986082 11.42576599 440.70492554 C10.20459723 440.70945665 8.98342847 440.71398776 7.7252546 440.71865618 C4.34755571 440.72910668 0.97007021 440.7306294 -2.40762961 440.72826743 C-6.05540395 440.72785846 -9.7031468 440.73890624 -13.35090637 440.74838257 C-20.49414725 440.7649779 -27.63735512 440.7704915 -34.78061367 440.77160732 C-40.59078169 440.77255876 -46.40093885 440.77667382 -52.21110344 440.78300858 C-68.70009115 440.80061913 -85.18905286 440.80984806 -101.67805005 440.80834763 C-102.56651277 440.80826772 -103.45497549 440.8081878 -104.37036133 440.80810547 C-105.2599149 440.80802371 -106.14946848 440.80794195 -107.06597822 440.80785771 C-121.47000776 440.80704548 -135.87393256 440.82616773 -150.27793182 440.8543822 C-165.08365095 440.88315355 -179.88931909 440.89692007 -194.69506687 440.89519465 C-203.0009093 440.89453208 -211.30664201 440.89996547 -219.61245918 440.92155075 C-226.68702493 440.93981886 -233.76143126 440.94406413 -240.83601046 440.9305319 C-244.44085445 440.92402969 -248.04539312 440.92378433 -251.65020752 440.9412384 C-287.50059485 441.10367121 -287.50059485 441.10367121 -299.4375 429.4375 C-307.97940865 420.95317725 -311.62621918 410.92840193 -311.69852525 398.96156275 C-311.69317992 398.19763724 -311.68783458 397.43371173 -311.68232727 396.64663696 C-311.68459184 395.80958013 -311.68685642 394.9725233 -311.68918961 394.1101011 C-311.69444827 391.33064552 -311.68568484 388.55141685 -311.67700195 385.77197266 C-311.67811587 383.76881336 -311.6801753 381.76565441 -311.68310547 379.76249695 C-311.68781563 375.46064048 -311.68672015 371.15883866 -311.68132973 366.85698318 C-311.67370083 360.04820087 -311.68439694 353.23952311 -311.6985321 346.43075562 C-311.73621756 327.07329897 -311.75446303 307.71589016 -311.74291992 288.35839844 C-311.73669664 277.65826071 -311.74831736 266.95829234 -311.77936524 256.25819623 C-311.79798119 249.49634547 -311.7947377 242.73497589 -311.77519763 235.97313333 C-311.76829612 231.75843301 -311.78231173 227.54399131 -311.80214691 223.32933998 C-311.80717652 221.38276142 -311.80375523 219.43613877 -311.79101372 217.48959541 C-311.72691244 206.94277757 -312.00484564 198.78768886 -317.4375 189.4375 C-318.07650531 187.9212152 -318.69314369 186.39505435 -319.27441406 184.85571289 C-319.55109924 184.12868668 -319.82778442 183.40166046 -320.112854 182.65260315 C-320.39014343 181.91259567 -320.66743286 181.1725882 -320.953125 180.41015625 C-321.25442322 179.6139537 -321.55572144 178.81775116 -321.8661499 177.99742126 C-322.49293032 176.33870723 -323.11794526 174.67932502 -323.74121094 173.01928711 C-324.69530849 170.47921162 -325.65583459 167.94163415 -326.6171875 165.40429688 C-327.22954263 163.78139181 -327.84153514 162.15834986 -328.453125 160.53515625 C-328.73851135 159.78097916 -329.02389771 159.02680206 -329.31793213 158.24977112 C-331.87779508 151.41613195 -333.90011122 145.50030893 -331.3125 138.3125 C-327.6161345 132.64473956 -322.88524657 129.89218767 -316.71484375 127.4140625 C-316.07051392 127.15167786 -315.42618408 126.88929321 -314.7623291 126.61895752 C-312.63724354 125.75644209 -310.5062814 124.90957615 -308.375 124.0625 C-306.84927155 123.44651258 -305.32397101 122.82946432 -303.79907227 122.21142578 C-300.60667151 120.91954917 -297.41185879 119.63393005 -294.21484375 118.35351562 C-289.70064094 116.54500514 -285.19291928 114.72089188 -280.6875 112.890625 C-279.22949953 112.29848453 -277.77149167 111.70636225 -276.31347656 111.11425781 C-275.58471313 110.81829712 -274.85594971 110.52233643 -274.10510254 110.21740723 C-271.84631106 109.30085891 -269.58684873 108.38598493 -267.32714844 107.47167969 C-254.08206681 102.1122641 -240.85240597 96.71537309 -227.625 91.3125 C-213.00809865 85.34240253 -198.38804489 79.38048345 -183.75732422 73.44433594 C-170.51164229 68.06813224 -157.27920895 62.65947961 -144.0456543 57.25350952 C-131.26035002 52.03100425 -118.46857701 46.82527087 -105.6640625 41.65005493 C-87.72188384 34.3971948 -69.84415133 26.99315206 -51.97372437 19.56555176 C-43.05236377 15.8591126 -34.1210094 12.17704245 -25.1875 8.5 C-24.46495026 8.20245819 -23.74240051 7.90491638 -22.99795532 7.59835815 C-14.37150662 4.04632029 -14.37150662 4.04632029 -10.4375 2.4375 C-9.08241333 1.87168213 -9.08241333 1.87168213 -7.69995117 1.29443359 C-5.04273367 0.28797698 -2.83706012 0.06841138 0 0 Z " fill="#F6F6F6" transform="translate(714.4375,277.5625)"/>
<path d="M0 0 C1.11443969 -0.00453111 2.22887938 -0.00906223 3.37708998 -0.01373065 C7.10149276 -0.02636376 10.8257491 -0.02475493 14.5501709 -0.02310181 C17.22486918 -0.02908787 19.89955612 -0.03583741 22.57424927 -0.04345703 C29.08101126 -0.06003715 35.58773701 -0.06556529 42.09451836 -0.06668179 C47.38881804 -0.06763403 52.68310582 -0.07175312 57.97740173 -0.07808304 C73.01157476 -0.09569015 88.0457193 -0.10492317 103.07990271 -0.10342209 C103.8896127 -0.10334218 104.69932268 -0.10326227 105.53356934 -0.10317993 C106.3442768 -0.10309817 107.15498427 -0.10301641 107.99025863 -0.10293217 C121.11250566 -0.10212024 134.23463763 -0.12123585 147.3568514 -0.14945666 C160.85405821 -0.17825302 174.35120905 -0.19199314 187.84844732 -0.19026911 C195.41657718 -0.18960736 202.98458655 -0.19500446 210.5526886 -0.21662521 C216.99989133 -0.23492651 223.44691901 -0.23911185 229.89413661 -0.22560637 C233.17724656 -0.21912033 236.45995547 -0.22101534 239.74304581 -0.23631287 C261.79677648 -0.3323628 280.67796746 0.98920135 297.46228027 16.92367554 C309.02849696 28.80677487 316.08720836 43.41385093 316.0834198 60.13697815 C316.06793594 61.17389297 316.05245209 62.2108078 316.03649902 63.27914429 C316.03225418 64.37338211 316.02800934 65.46761993 316.02363586 66.59501648 C316.00700508 70.04858276 315.96938247 73.50153924 315.93103027 76.95492554 C315.91596327 79.313641 315.90227842 81.67236571 315.89001465 84.03109741 C315.85715293 89.77674393 315.8071121 95.52204115 315.74353027 101.26742554 C311.91753029 102.8362107 308.09061291 104.40273339 304.26281738 105.96713257 C302.9598263 106.50003397 301.65709102 107.03356127 300.35461426 107.56771851 C298.48622364 108.33383684 296.61684509 109.09754445 294.74743652 109.86117554 C293.621521 110.32201538 292.49560547 110.78285522 291.33557129 111.25765991 C288.74353027 112.26742554 288.74353027 112.26742554 287.74353027 112.26742554 C287.73473091 111.24504539 287.73473091 111.24504539 287.72575378 110.20201111 C287.66160128 103.07974944 287.57712544 95.9579305 287.4810791 88.83602905 C287.44630364 86.18136751 287.41985841 83.52699658 287.39709473 80.87216187 C287.36339238 77.04658702 287.31106631 73.22164024 287.25524902 69.39633179 C287.24566414 67.62861168 287.24566414 67.62861168 287.23588562 65.82518005 C287.03268404 54.3226061 284.19485012 44.28021608 275.74353027 36.07992554 C266.73562485 29.11409493 256.28934623 27.52281025 245.22399902 27.56039429 C243.99941483 27.54527298 242.77483063 27.53015167 241.51313782 27.51457214 C237.65224297 27.47203588 233.79213508 27.46288956 229.93103027 27.45492554 C227.29233797 27.43175495 224.65366402 27.40638435 222.01501465 27.37875366 C215.59117878 27.31623777 209.1676462 27.28103402 202.74353027 27.26742554 C202.78051025 28.70396484 202.78051025 28.70396484 202.8182373 30.16952515 C202.83741211 31.42773071 202.85658691 32.68593628 202.87634277 33.98226929 C202.91332275 35.85193359 202.91332275 35.85193359 202.9510498 37.7593689 C202.56828382 44.22991522 199.42335011 47.50761428 195.11853027 52.01742554 C187.69667181 57.64072028 178.7531891 58.86043273 169.72351074 58.76913452 C168.68297546 58.77453751 167.64244019 58.77994049 166.57037354 58.7855072 C163.1668562 58.7979076 159.76419911 58.7815632 156.36071777 58.76351929 C153.97661291 58.76367445 151.5925078 58.76516634 149.20840454 58.76792908 C144.22732302 58.76930911 139.24653083 58.75681917 134.26550293 58.73397827 C127.89589848 58.70556436 121.52677318 58.70834491 115.1571331 58.72106838 C110.23963358 58.72803746 105.32224394 58.72022266 100.40475845 58.70781136 C98.05652412 58.70331102 95.70827793 58.70294759 93.36004257 58.70687675 C90.07470426 58.70980178 86.79001661 58.69322067 83.50476074 58.67147827 C82.06439957 58.67823074 82.06439957 58.67823074 80.59494019 58.68511963 C71.97295151 58.59077886 64.59356704 56.71631842 57.74353027 51.26742554 C52.12947789 45.39818896 50.64124119 41.04855419 50.70056152 33.05648804 C50.70676514 31.97319214 50.71296875 30.88989624 50.71936035 29.77377319 C50.72733643 28.94667847 50.7353125 28.11958374 50.74353027 27.26742554 C43.21767784 27.36012565 35.69213452 27.46748523 28.16662598 27.58480835 C25.60905645 27.62297862 23.05143542 27.65785187 20.49377441 27.68930054 C16.80730851 27.73521099 13.12119347 27.79316277 9.43493652 27.85336304 C8.30020401 27.86491425 7.1654715 27.87646545 5.99635315 27.8883667 C-4.98346109 28.09028938 -15.73005821 29.56304295 -24.30334473 37.05648804 C-30.2338 43.41778835 -34.37755489 51.50412152 -34.38412023 60.32421315 C-34.38713619 61.12905345 -34.39015216 61.93389375 -34.39325953 62.76312315 C-34.39149005 63.64337704 -34.38972058 64.52363092 -34.38789749 65.43055916 C-34.38995013 66.37260271 -34.39200276 67.31464627 -34.39411759 68.2852366 C-34.39980612 71.46584613 -34.39832806 74.64641262 -34.39691162 77.82702637 C-34.3994942 80.12086597 -34.40250706 82.41470513 -34.40591502 84.70854366 C-34.41400096 91.03087898 -34.41577548 97.35320295 -34.41651249 103.67554283 C-34.4176882 109.78795506 -34.42448683 115.90036242 -34.4305909 122.01277129 C-34.44665719 138.3919812 -34.45255496 154.7711902 -34.45733965 171.15040658 C-34.45967503 178.89813595 -34.46327762 186.64586459 -34.46703503 194.39359339 C-34.47987127 220.91211968 -34.49059025 247.43064555 -34.49403763 273.94917488 C-34.49425926 275.61412777 -34.49448105 277.27908066 -34.49470298 278.94403356 C-34.49492362 280.61302248 -34.4951441 282.28201141 -34.49536443 283.95100033 C-34.49580698 287.29931394 -34.4962541 290.64762755 -34.4967041 293.99594116 C-34.49681349 294.82612941 -34.49692288 295.65631765 -34.49703559 296.51166311 C-34.50066622 323.43055339 -34.51658613 350.34941674 -34.53989447 377.2682967 C-34.56448918 405.72482125 -34.57821031 434.18133041 -34.57940555 462.6378659 C-34.579577 465.76158707 -34.57979243 468.88530823 -34.58003998 472.00902939 C-34.58009575 472.77818397 -34.58015152 473.54733856 -34.58020897 474.33980086 C-34.58135976 486.71927638 -34.59238411 499.09872427 -34.60692703 511.47819046 C-34.62129179 523.92114953 -34.62452915 536.36407318 -34.61648706 548.80703826 C-34.61242291 555.54842824 -34.61353938 562.28971968 -34.6275444 569.03109932 C-34.6402473 575.20206109 -34.63911746 581.37285966 -34.62695369 587.54382108 C-34.62499043 589.77670605 -34.62810401 592.00960244 -34.63679805 594.24247135 C-34.64787033 597.27826059 -34.64041574 600.31347182 -34.62840652 603.34924507 C-34.63600172 604.21545196 -34.64359691 605.08165884 -34.65142226 605.97411442 C-34.55815237 616.90112712 -31.00583946 625.94030051 -23.66271973 634.02133179 C-17.32869785 639.98188539 -8.38254653 643.3819498 0.29395294 643.40164661 C1.20716639 643.40610446 2.12037984 643.4105623 3.06126642 643.41515523 C4.06085807 643.41497087 5.06044972 643.41478651 6.09033203 643.41459656 C7.15517366 643.41827325 8.22001529 643.42194993 9.31712484 643.42573804 C12.89741587 643.43678095 16.47767788 643.44061979 20.0579834 643.44442749 C22.6203521 643.45069175 25.18271988 643.45733852 27.74508667 643.46434021 C35.44395092 643.48357214 43.14281007 643.49416996 50.84169221 643.503068 C54.47028326 643.50745403 58.09887286 643.5128201 61.72746277 643.51805687 C73.79563341 643.53506927 85.86380316 643.54956171 97.93198395 643.55680561 C101.06285096 643.55871541 104.19371797 643.56063575 107.32458496 643.56259155 C108.1027163 643.56307529 108.88084764 643.56355903 109.68255872 643.56405743 C122.27750326 643.57235125 134.87235263 643.59767712 147.46725565 643.63017223 C160.40834414 643.66328725 173.34938435 643.68125846 186.29051542 643.68444985 C193.55230327 643.68661106 200.8139524 643.69530225 208.07569885 643.72091103 C214.91128346 643.74496162 221.74661521 643.74841585 228.58223343 643.73814964 C231.08634394 643.73765469 233.5904668 643.74396303 236.09453964 643.75770569 C239.52360905 643.77546642 242.95178832 643.76829692 246.38085938 643.75517273 C247.85347819 643.7716266 247.85347819 643.7716266 249.35584688 643.78841287 C258.56395332 643.70382251 267.84776688 641.70347137 274.74353027 635.26742554 C275.40353027 635.26742554 276.06353027 635.26742554 276.74353027 635.26742554 C276.74353027 634.60742554 276.74353027 633.94742554 276.74353027 633.26742554 C277.40353027 633.26742554 278.06353027 633.26742554 278.74353027 633.26742554 C279.02067871 632.71055054 279.29782715 632.15367554 279.58337402 631.57992554 C280.37980648 629.9924238 281.1849775 628.40928514 281.99743652 626.82992554 C282.42927246 625.98430054 282.8611084 625.13867554 283.30603027 624.26742554 C283.95765137 622.99898804 283.95765137 622.99898804 284.62243652 621.70492554 C286.38885767 617.86434437 286.87285377 614.52778045 286.94885254 610.3152771 C286.96879776 609.33456238 286.98874298 608.35384766 287.0092926 607.34341431 C287.03436134 605.76665924 287.03436134 605.76665924 287.05993652 604.15805054 C287.08071762 603.07610413 287.10149872 601.99415771 287.12290955 600.87942505 C287.18825958 597.42548941 287.24722257 593.97147817 287.30603027 590.51742554 C287.34922931 588.17496982 287.39284405 585.83252174 287.43688965 583.49008179 C287.54470782 577.74927271 287.64388992 572.0084057 287.74353027 566.26742554 C296.98353027 566.26742554 306.22353027 566.26742554 315.74353027 566.26742554 C315.78965796 572.90212451 315.82941895 579.53625793 315.85339355 586.17098999 C315.86339734 588.42393895 315.87700463 590.67687511 315.89440918 592.92977905 C315.91890625 596.18428729 315.93006993 599.43862257 315.93884277 602.69320679 C315.94916534 603.68637405 315.95948792 604.67954132 315.97012329 605.70280457 C315.97263109 621.64264847 311.68632081 635.69782789 301.74353027 648.26742554 C301.25626465 648.94160522 300.76899902 649.61578491 300.26696777 650.31039429 C290.98708561 662.23147369 275.89169121 669.55702223 261.19694901 671.81155872 C256.11719171 672.41589335 251.0635009 672.40917966 245.95367432 672.40113831 C244.35741065 672.40453664 244.35741065 672.40453664 242.72889924 672.40800363 C239.17484584 672.41431692 235.62083084 672.41351598 232.06677246 672.41268921 C229.51366629 672.41568237 226.96056057 672.41908526 224.40745544 672.42286682 C218.198821 672.43077869 211.99020054 672.43392079 205.78156152 672.4344792 C200.73179659 672.43495529 195.68203476 672.43701468 190.63227081 672.44017982 C176.29722746 672.44898126 161.96219157 672.45360002 147.6271455 672.45284935 C146.85521556 672.45280939 146.08328562 672.45276944 145.28796387 672.45272827 C144.12864579 672.45266695 144.12864579 672.45266695 142.94590715 672.45260439 C130.42561459 672.4521981 117.90535212 672.46176469 105.38506827 672.47586664 C92.51165365 672.49025125 79.63825368 672.49713567 66.76483083 672.49627286 C59.54450919 672.4959416 52.3242191 672.49865735 45.10390472 672.50945091 C38.31099708 672.51954093 31.51816695 672.51919929 24.72525215 672.51193428 C22.23727127 672.51089056 19.74928621 672.51323864 17.26131248 672.51929474 C13.85457108 672.52704777 10.44805754 672.52234789 7.0413208 672.5146637 C5.57863113 672.52237904 5.57863113 672.52237904 4.08639216 672.53025025 C-16.34673901 672.42900551 -31.72671202 665.28176954 -46.25646973 651.26742554 C-46.81334473 650.74793335 -47.37021973 650.22844116 -47.94396973 649.69320679 C-51.61869141 645.88867157 -54.0109786 641.35662296 -56.44396973 636.70492554 C-56.77735352 636.0867395 -57.1107373 635.46855347 -57.45422363 634.83163452 C-64.27155656 621.17809834 -63.68600719 606.2995356 -63.63742065 591.45626831 C-63.6408812 589.14839758 -63.64564842 586.84052851 -63.65160239 584.53266287 C-63.6640874 578.21779726 -63.6579533 571.90306824 -63.64864373 565.58820224 C-63.64106946 559.4687775 -63.65055604 553.34936601 -63.65808583 547.22994508 C-63.67385146 533.94814345 -63.6725265 520.66638521 -63.66384909 507.38457949 C-63.65629279 495.7612289 -63.65433681 484.13789418 -63.65791702 472.51454163 C-63.65814618 471.74256788 -63.65837533 470.97059413 -63.65861143 470.17522724 C-63.6595455 467.04127946 -63.6605007 463.90733168 -63.66149072 460.77338392 C-63.67066106 431.39395381 -63.66235792 402.01455128 -63.64620003 372.63512542 C-63.63196396 346.55176928 -63.63323787 320.46845708 -63.64758301 294.38510132 C-63.66365817 265.05829459 -63.67001062 235.73151223 -63.66074622 206.40470171 C-63.65978411 203.27657096 -63.65884559 200.14844021 -63.65791702 197.02030945 C-63.65767979 196.25012326 -63.65744256 195.47993707 -63.65719814 194.6864119 C-63.65379037 183.07235242 -63.65776787 171.45831058 -63.66535568 159.84425354 C-63.67394331 146.63426586 -63.67176799 133.42432823 -63.65551345 120.21434677 C-63.6474954 113.47644715 -63.64452769 106.738642 -63.65446091 100.00074196 C-63.66342216 93.82872846 -63.65845113 87.65688639 -63.64252825 81.48488837 C-63.63918654 79.25627206 -63.64086071 77.02764117 -63.64815561 74.7990343 C-63.69265024 60.07226336 -63.61860099 45.81208574 -56.25646973 32.57992554 C-55.86765625 31.86787964 -55.47884277 31.15583374 -55.07824707 30.42221069 C-46.4319644 15.31939929 -32.20038108 6.14103581 -15.79862213 1.23262596 C-10.54302266 -0.05924595 -5.387031 -0.01616889 0 0 Z " fill="#F8F7F8" transform="translate(323.2564697265625,178.73257446289063)"/>
<path d="M0 0 C1.24607891 -0.00709439 2.49215781 -0.01418877 3.77599669 -0.02149814 C7.23720455 -0.03607654 10.69704862 -0.02816429 14.15815711 -0.01077521 C17.88966116 0.00257333 21.62106038 -0.0128292 25.35255432 -0.02459717 C32.66338686 -0.04299705 39.97395252 -0.03444592 47.28477681 -0.01650894 C53.22526571 -0.00249552 59.16568206 0.00141258 65.10618591 -0.00195122 C65.95097424 -0.00242866 66.79576257 -0.0029061 67.66615054 -0.00339801 C69.3822065 -0.00442432 71.09826244 -0.00547968 72.81431836 -0.00656378 C87.99593531 -0.01513559 103.17742323 0.00155972 118.35900879 0.03126526 C133.0976707 0.06010384 147.83614672 0.06718684 162.5748291 0.05177307 C178.61597973 0.0350202 194.65704206 0.03096735 210.69819498 0.04848343 C212.40801397 0.05032786 214.11783297 0.05216259 215.82765198 0.0539875 C217.08961823 0.05535564 217.08961823 0.05535564 218.37707874 0.05675141 C224.31190204 0.06236251 230.24668232 0.0590443 236.1815033 0.05244255 C243.41199308 0.04471901 250.64229973 0.05142644 257.87275255 0.07661759 C261.563403 0.08913558 265.253768 0.09523162 268.9444294 0.08407593 C272.94107602 0.07222325 276.93722763 0.09124866 280.93383789 0.11352539 C282.10619728 0.10528462 283.27855666 0.09704386 284.48644209 0.08855337 C285.55437514 0.09960106 286.62230819 0.11064875 287.72260284 0.12203121 C288.64543328 0.12322269 289.56826371 0.12441418 290.5190587 0.12564176 C293.73458235 0.78579089 294.93902566 2.10117199 296.96691895 4.62818909 C297.47028351 7.10264397 297.47028351 7.10264397 297.47485352 9.9282074 C297.49177246 11.53896652 297.49177246 11.53896652 297.5090332 13.18226624 C297.49688782 14.94189697 297.49688782 14.94189697 297.48449707 16.73707581 C297.49501099 18.59618088 297.49501099 18.59618088 297.5057373 20.49284363 C297.52032905 23.88993841 297.51690452 27.28605901 297.50422096 30.68309927 C297.49408676 34.24107254 297.50348821 37.79900445 297.50976562 41.35697937 C297.51704274 47.3340145 297.50745479 53.31085194 297.48840332 59.28785706 C297.46665414 66.19077107 297.47367109 73.09321214 297.49570894 79.99611461 C297.51388505 85.92749121 297.51640993 91.85872573 297.50595427 97.7901212 C297.49972883 101.33049014 297.49885685 104.87063713 297.51210022 108.41099167 C297.52584362 112.36101778 297.50677274 116.31051835 297.48449707 120.26051331 C297.49259399 121.429552 297.50069092 122.5985907 297.5090332 123.80305481 C297.44568292 129.86595973 297.33228075 134.01244054 292.96691895 138.62818909 C287.44311867 143.4914584 282.35186531 143.19335691 275.20704651 143.13612366 C273.41816919 143.1454836 273.41816919 143.1454836 271.59315294 143.15503263 C268.2906414 143.16821499 264.98904145 143.1634878 261.68658555 143.15108776 C258.12207493 143.14203269 254.55764363 143.1560093 250.9931488 143.16700745 C244.01316141 143.18479299 237.03334608 143.18095242 230.05335195 143.16935688 C224.37991332 143.16032223 218.7065229 143.1590987 213.03307915 143.16345215 C212.22550767 143.16406508 211.41793618 143.16467801 210.58589284 143.16530952 C208.94529815 143.16658843 207.30470347 143.16788528 205.66410881 143.16919988 C190.28021867 143.18060597 174.89642389 143.16749192 159.51254939 143.14599842 C146.31540671 143.12813079 133.11840478 143.1312287 119.92126465 143.14967346 C104.59386596 143.17108553 89.26655086 143.17950376 73.93913931 143.16722441 C72.30428439 143.16595022 70.66942945 143.16469274 69.03457451 143.16345215 C68.23020922 143.16283505 67.42584393 143.16221794 66.59710394 143.16158214 C60.93166462 143.15813 55.26627835 143.16395473 49.60084724 143.17337036 C42.69475408 143.18459563 35.78884274 143.18153945 28.88277037 143.16024739 C25.35982115 143.14974341 21.83717495 143.14560363 18.31422806 143.15884399 C14.49390614 143.17298467 10.6740791 143.15608652 6.85377502 143.13612366 C5.74210073 143.14504654 4.63042644 143.15396943 3.48506504 143.16316271 C-2.89684126 143.09836776 -6.8786719 142.50334529 -12.03308105 138.62818909 C-17.08627108 133.0249222 -16.60139391 125.4191603 -16.55065918 118.32472229 C-16.55766846 117.11238922 -16.56467773 115.90005615 -16.57189941 114.65098572 C-16.5864256 111.34715407 -16.58311152 108.04433256 -16.57038307 104.74055886 C-16.56020729 101.27423073 -16.56966075 97.80794372 -16.57592773 94.34161377 C-16.58318799 88.52552092 -16.57365626 82.70963181 -16.55456543 76.89356995 C-16.53276882 70.17572863 -16.53987438 63.45837242 -16.56187105 56.74054271 C-16.58003489 50.96111574 -16.58257957 45.18183457 -16.57211637 39.40238827 C-16.5658907 35.95544714 -16.56502062 32.50873399 -16.57826233 29.06180763 C-16.59198506 25.2221711 -16.57295508 21.38307671 -16.55065918 17.54347229 C-16.5587561 16.40517471 -16.56685303 15.26687714 -16.57519531 14.09408569 C-16.56391602 13.04700439 -16.55263672 11.9999231 -16.54101562 10.92111206 C-16.53950752 10.01431859 -16.53799942 9.10752512 -16.53644562 8.17325306 C-14.71043336 -1.05925626 -7.81418474 -0.07888926 0 0 Z " fill="#121D24" transform="translate(446.0330810546875,548.3718109130859)"/>
<path d="M0 0 C17.82 0 35.64 0 54 0 C52.08302905 3.83394189 49.84056649 6.93132815 47.1875 10.25 C46.71119141 10.85191162 46.23488281 11.45382324 45.74414062 12.07397461 C43.01963393 15.50553473 40.26303585 18.90975434 37.48828125 22.30078125 C36.90731689 23.01137695 36.32635254 23.72197266 35.7277832 24.45410156 C34.59819147 25.83253228 33.46534499 27.20830389 32.32885742 28.58105469 C30.0826032 31.31671237 28.0540662 33.90840123 26.25 36.96484375 C25.63125 37.97224609 25.63125 37.97224609 25 39 C24.34 39 23.68 39 23 39 C22.731875 39.5775 22.46375 40.155 22.1875 40.75 C20.92963955 43.13331454 19.84125623 45.02158386 18 47 C15.58918762 47.48101807 15.58918762 47.48101807 12.70239258 47.45410156 C11.62149857 47.45379944 10.54060455 47.45349731 9.42695618 47.45318604 C7.67840584 47.42221832 7.67840584 47.42221832 5.89453125 47.390625 C4.70018967 47.38496521 3.50584808 47.37930542 2.27531433 47.37347412 C-1.54602847 47.35105175 -5.36643975 47.30084195 -9.1875 47.25 C-11.7753771 47.2299427 -14.36326887 47.2116906 -16.95117188 47.1953125 C-23.30110004 47.15116763 -29.65048348 47.08419628 -36 47 C-29.71864061 37.57715869 -29.71864061 37.57715869 -27 34 C-26.34 34 -25.68 34 -25 34 C-24.76023437 33.45988281 -24.52046875 32.91976562 -24.2734375 32.36328125 C-22.66727339 29.38251657 -20.70371882 26.86158004 -18.625 24.1875 C-18.19453369 23.63215576 -17.76406738 23.07681152 -17.32055664 22.50463867 C-13.22331479 17.23884039 -9.04761545 12.0348499 -4.84814453 6.8503418 C-2.16881446 3.59583317 -2.16881446 3.59583317 0 0 Z " fill="#111B22" transform="translate(571,483)"/>
<path d="M0 0 C2.55584296 0.06526452 5.11184546 0.12457041 7.66796875 0.17773438 C13.90714599 0.32043904 20.1403304 0.53742835 26.375 0.8125 C25.42333778 2.08209071 24.47157705 3.35160758 23.51977539 4.62109375 C22.98977432 5.32806396 22.45977325 6.03503418 21.91371155 6.76342773 C14.55649179 16.56089431 7.02338384 26.22343649 -0.87037659 35.59638977 C-2.68344941 37.81139493 -2.68344941 37.81139493 -4.25961304 40.35820007 C-8.96482102 47.28421283 -8.96482102 47.28421283 -13.38467407 48.69065857 C-16.63369327 48.96782289 -19.74270384 48.939434 -23 48.7890625 C-24.7476062 48.76783829 -24.7476062 48.76783829 -26.53051758 48.7461853 C-30.23135504 48.69045167 -33.92601099 48.56505135 -37.625 48.4375 C-40.14183929 48.38731216 -42.65877403 48.34168957 -45.17578125 48.30078125 C-51.32760985 48.19086066 -57.47586341 48.0238023 -63.625 47.8125 C-61.81066479 44.00070807 -59.4383256 40.84674709 -56.8125 37.5625 C-56.33111572 36.9547876 -55.84973145 36.3470752 -55.35375977 35.72094727 C-51.14139185 30.41925521 -46.87086867 25.16393321 -42.5690918 19.93457031 C-42.07062744 19.32581055 -41.57216309 18.71705078 -41.05859375 18.08984375 C-40.5059082 17.45183838 -39.95322266 16.81383301 -39.38378906 16.15649414 C-37.46606888 13.75093419 -37.46606888 13.75093419 -35.96777344 10.45092773 C-28.46000156 -3.68772735 -14.09507551 -0.62405263 0 0 Z " fill="#121C23" transform="translate(494.625,482.1875)"/>
<path d="M0 0 C1.7476062 0.02122421 1.7476062 0.02122421 3.53051758 0.0428772 C7.23135504 0.09861083 10.92601099 0.22401115 14.625 0.3515625 C17.14183929 0.40175034 19.65877403 0.44737293 22.17578125 0.48828125 C28.32760985 0.59820184 34.47586341 0.7652602 40.625 0.9765625 C38.86737075 4.6487084 36.69542424 7.63339411 34.1875 10.8515625 C33.52488159 11.7036731 33.52488159 11.7036731 32.84887695 12.57299805 C31.44429163 14.37684633 30.0346886 16.17670093 28.625 17.9765625 C27.3257855 19.64501243 26.02707124 21.3138332 24.73046875 22.98431396 C23.82861612 24.13216522 22.91594797 25.27166126 21.98919678 26.39950562 C19.4337159 29.52984687 17.19182866 32.6320892 15.18603516 36.14331055 C11.76861037 41.71361325 8.29346524 46.89750534 1.76760864 48.81704712 C-6.36890084 49.97954024 -14.513232 49.43546877 -22.6875 48.9765625 C-25.18141157 48.89619214 -27.67557272 48.82320803 -30.16992188 48.7578125 C-36.24378115 48.58260329 -42.3082156 48.31594957 -48.375 47.9765625 C-45.7109044 43.2097506 -43.07459975 39.22543199 -39.4375 35.1015625 C-34.42506796 29.32761812 -29.74583064 23.34460131 -25.14282227 17.24072266 C-24.14350795 15.91712965 -23.13389195 14.601235 -22.112854 13.29432678 C-20.329848 10.97850343 -20.329848 10.97850343 -18.74382019 8.40950012 C-13.37931934 0.54139252 -9.25463793 -0.42723589 0 0 Z " fill="#121C23" transform="translate(688.375,482.0234375)"/>
<path d="M0 0 C-1.36611706 5.51428458 -2.73545983 11.02775485 -4.10766602 16.54052734 C-4.57304986 18.4120571 -5.03758511 20.2837981 -5.5012207 22.15576172 C-6.17170262 24.862228 -6.84533622 27.5678941 -7.51953125 30.2734375 C-7.72278519 31.09677582 -7.92603912 31.92011414 -8.13545227 32.7684021 C-12.70917365 51.06674251 -12.70917365 51.06674251 -17 55 C-20.25 56.625 -20.25 56.625 -24 58 C-25.35707602 58.51090884 -26.71384385 59.02263702 -28.0703125 59.53515625 C-28.7396582 59.78281738 -29.40900391 60.03047852 -30.09863281 60.28564453 C-32.71927648 61.27023664 -35.29635666 62.34818391 -37.875 63.4375 C-38.81859375 63.83066406 -39.7621875 64.22382813 -40.734375 64.62890625 C-43.31145188 65.71090862 -45.88288768 66.80429932 -48.453125 67.90234375 C-50.01033518 68.5600888 -51.56762655 69.21764164 -53.125 69.875 C-54.24624268 70.35924438 -54.24624268 70.35924438 -55.39013672 70.85327148 C-57.23628131 71.62820951 -59.11626881 72.32151964 -61 73 C-61.66 72.67 -62.32 72.34 -63 72 C-61.35597373 65.27143661 -59.70076194 58.54569597 -58.0378418 51.82177734 C-57.47375318 49.53529929 -56.91220338 47.2481933 -56.35327148 44.96044922 C-55.54821938 41.6672494 -54.73398547 38.37643521 -53.91796875 35.0859375 C-53.67096725 34.06696381 -53.42396576 33.04799011 -53.16947937 31.99813843 C-50.06847894 19.5882817 -50.06847894 19.5882817 -46.15014648 16.57958984 C-45.41868408 16.25168457 -44.68722168 15.9237793 -43.93359375 15.5859375 C-43.04655762 15.18342773 -42.15952148 14.78091797 -41.24560547 14.36621094 C-39.63903076 13.68993652 -39.63903076 13.68993652 -38 13 C-37.35782532 12.72692017 -36.71565063 12.45384033 -36.05401611 12.17248535 C-31.54154631 10.25986848 -27.00660905 8.40822981 -22.45678711 6.58642578 C-20.03932563 5.61569434 -17.628144 4.63033737 -15.21679688 3.64453125 C-13.67744438 3.02514362 -12.13774324 2.40662157 -10.59765625 1.7890625 C-9.87892838 1.49335358 -9.1602005 1.19764465 -8.41969299 0.89297485 C-3.3431505 -1.1143835 -3.3431505 -1.1143835 0 0 Z " fill="#121C24" transform="translate(499,386)"/>
<path d="M0 0 C1.34136742 2.68273484 0.7104612 3.76068086 -0.07421875 6.62890625 C-0.32768066 7.57338623 -0.58114258 8.51786621 -0.84228516 9.4909668 C-1.12120605 10.50457275 -1.40012695 11.51817871 -1.6875 12.5625 C-2.25308224 14.66358412 -2.81687152 16.76515166 -3.37890625 18.8671875 C-3.65750488 19.90842773 -3.93610352 20.94966797 -4.22314453 22.02246094 C-5.27633872 26.0591537 -6.20749228 30.11830598 -7.125 34.1875 C-11.66557649 53.78904801 -11.66557649 53.78904801 -18 58 C-20.91015625 59.30859375 -20.91015625 59.30859375 -24.0625 60.4375 C-31.90251896 63.32916618 -39.59756703 66.48790889 -47.23828125 69.87109375 C-47.96490967 70.19223145 -48.69153809 70.51336914 -49.44018555 70.84423828 C-50.87684633 71.48093475 -52.3119593 72.12113733 -53.74536133 72.76513672 C-58.78031844 75 -58.78031844 75 -61 75 C-59.47710667 65.32892876 -57.14432125 55.85133804 -54.79638672 46.35498047 C-54.34650631 44.52568493 -53.90255089 42.69492269 -53.46435547 40.86279297 C-52.82486096 38.18910594 -52.16835577 35.52011708 -51.5078125 32.8515625 C-51.31599396 32.03692535 -51.12417542 31.22228821 -50.92654419 30.38296509 C-49.75075163 25.73359886 -48.47495438 22.48858165 -45 19 C-42.46861167 17.61285772 -40.089287 16.4682754 -37.4375 15.375 C-36.67969238 15.05015625 -35.92188477 14.7253125 -35.14111328 14.390625 C-32.43536925 13.24037758 -29.71923625 12.11798247 -27 11 C-25.27499268 10.2889209 -25.27499268 10.2889209 -23.51513672 9.56347656 C-15.69004554 6.34272117 -7.84976341 3.16018086 0 0 Z " fill="#121C23" transform="translate(696,303)"/>
<path d="M0 0 C1.06717765 3.2657592 0.90616651 5.37590797 0.07543945 8.68920898 C-0.26568123 10.07601112 -0.26568123 10.07601112 -0.61369324 11.49082947 C-0.86879166 12.48256668 -1.12389008 13.47430389 -1.38671875 14.49609375 C-1.64499954 15.5217897 -1.90328033 16.54748566 -2.16938782 17.60426331 C-2.71872836 19.77328364 -3.27299008 21.94106265 -3.83178711 24.10766602 C-4.68234752 27.41745016 -5.50904761 30.73257738 -6.33398438 34.04882812 C-6.87095493 36.1566176 -7.40932081 38.26405221 -7.94921875 40.37109375 C-8.31668465 41.85566322 -8.31668465 41.85566322 -8.6915741 43.370224 C-10.25488041 49.33408235 -11.67144156 53.98216923 -17.21459961 57.3425293 C-18.03968018 57.68711182 -18.86476074 58.03169434 -19.71484375 58.38671875 C-20.68405762 58.79841309 -21.65327148 59.21010742 -22.65185547 59.63427734 C-23.75674316 60.08496582 -24.86163086 60.5356543 -26 61 C-27.2869576 61.53646559 -28.57356208 62.07377884 -29.85986328 62.61181641 C-33.36302347 64.07040084 -36.87526874 65.50549788 -40.3918457 66.93139648 C-42.59175771 67.82437618 -44.78906983 68.72356023 -46.98632812 69.62304688 C-48.38786915 70.19308143 -49.78955637 70.76275668 -51.19140625 71.33203125 C-51.84653702 71.60070511 -52.50166779 71.86937897 -53.176651 72.14619446 C-57.77076831 74 -57.77076831 74 -60 74 C-59.31326912 68.50569486 -58.18282482 63.22055077 -56.85546875 57.84765625 C-56.64440994 56.98869247 -56.43335114 56.1297287 -56.21589661 55.24473572 C-55.76980459 53.43652395 -55.32174642 51.62879623 -54.87182617 49.8215332 C-54.19099449 47.07658893 -53.52405612 44.32849973 -52.85742188 41.58007812 C-52.42012443 39.81489248 -51.98200035 38.04991138 -51.54296875 36.28515625 C-51.34801315 35.47345474 -51.15305756 34.66175323 -50.95219421 33.82545471 C-47.77777019 21.27429298 -47.77777019 21.27429298 -42.99975586 17.36230469 C-41.89966187 16.89679199 -41.89966187 16.89679199 -40.77734375 16.421875 C-39.89933105 16.03708984 -39.02131836 15.65230469 -38.11669922 15.25585938 C-37.08818848 14.84142578 -36.05967773 14.42699219 -35 14 C-33.74565939 13.47342533 -32.49195312 12.94533795 -31.23876953 12.41601562 C-27.02962756 10.65302555 -22.7973675 8.95002871 -18.5625 7.25 C-17.0916535 6.65530239 -15.62094933 6.06025264 -14.15039062 5.46484375 C-12.74752158 4.89812612 -11.34453123 4.33170867 -9.94140625 3.765625 C-9.28829971 3.50211243 -8.63519318 3.23859985 -7.96229553 2.96710205 C-5.32423064 1.90844246 -2.69760112 0.89920037 0 0 Z " fill="#121C23" transform="translate(596,344)"/>
<path d="M0 0 C1.03124496 -0.00953201 2.06248993 -0.01906403 3.12498474 -0.02888489 C4.80153893 -0.02751778 4.80153893 -0.02751778 6.51196289 -0.02612305 C8.22833702 -0.03255074 8.22833702 -0.03255074 9.97938538 -0.03910828 C12.40291684 -0.04485963 14.82646558 -0.04534594 17.25 -0.04101562 C20.96587481 -0.03785773 24.68095237 -0.0612987 28.39672852 -0.08666992 C30.74763897 -0.08894296 33.09855156 -0.08964639 35.44946289 -0.08862305 C37.12298073 -0.10243767 37.12298073 -0.10243767 38.83030701 -0.11653137 C40.38190269 -0.10718819 40.38190269 -0.10718819 41.96484375 -0.09765625 C42.87592392 -0.09828568 43.78700409 -0.0989151 44.72569275 -0.0995636 C47.04711914 0.2746582 47.04711914 0.2746582 48.87257385 1.60652161 C50.04711914 3.2746582 50.04711914 3.2746582 49.92211914 6.3371582 C49.04711914 9.2746582 49.04711914 9.2746582 46.04711914 11.2746582 C43.80834961 11.53535461 43.80834961 11.53535461 41.16430664 11.54931641 C40.17317871 11.55884842 39.18205078 11.56838043 38.16088867 11.57820129 C37.09209473 11.57728989 36.02330078 11.57637848 34.92211914 11.57543945 C33.27445557 11.58186714 33.27445557 11.58186714 31.59350586 11.58842468 C29.27010793 11.59417005 26.94669201 11.59466673 24.62329102 11.59033203 C21.06113148 11.58717064 17.49980102 11.61063449 13.93774414 11.63598633 C11.68253686 11.63825908 9.42732734 11.63896293 7.17211914 11.63793945 C5.56892822 11.65175407 5.56892822 11.65175407 3.93334961 11.66584778 C2.44665771 11.65650459 2.44665771 11.65650459 0.92993164 11.64697266 C-0.37886963 11.64791679 -0.37886963 11.64791679 -1.71411133 11.64888 C-4.44571072 11.19227917 -5.33606385 10.49564843 -6.95288086 8.2746582 C-7.26538086 5.2121582 -7.26538086 5.2121582 -6.95288086 2.2746582 C-4.41526405 -0.26295861 -3.51695283 0.017801 0 0 Z " fill="#111A20" transform="translate(427.952880859375,206.725341796875)"/>
<path d="M0 0 C17.49 0 34.98 0 53 0 C51 4 51 4 49 5 C49 4.34 49 3.68 49 3 C24.745 2.505 24.745 2.505 0 2 C0 1.34 0 0.68 0 0 Z " fill="#030910" transform="translate(676,483)"/>
<path d="M0 0 C17.82 0 35.64 0 54 0 C52.68 1.32 51.36 2.64 50 4 C50 3.34 50 2.68 50 2 C33.83 2 17.66 2 1 2 C0.67 1.34 0.34 0.68 0 0 Z " fill="#030910" transform="translate(467,483)"/>
<path d="M0 0 C0.92538169 3.70152678 1.08174162 4.63458162 0 8 C1.80597656 7.22462891 1.80597656 7.22462891 3.6484375 6.43359375 C5.22378608 5.76782143 6.79931639 5.10247901 8.375 4.4375 C9.1690625 4.09525391 9.963125 3.75300781 10.78125 3.40039062 C11.54179687 3.08134766 12.30234375 2.76230469 13.0859375 2.43359375 C13.7876709 2.13509521 14.4894043 1.83659668 15.21240234 1.52905273 C17 1 17 1 19 2 C14.27901937 4.4512784 9.51032899 6.705334 4.625 8.8125 C3.60664063 9.25207031 2.58828125 9.69164062 1.5390625 10.14453125 C0.70117188 10.42683594 -0.13671875 10.70914062 -1 11 C-1.66 10.67 -2.32 10.34 -3 10 C-2.01 6.7 -1.02 3.4 0 0 Z " fill="#070A0D" transform="translate(439,448)"/>
<path d="M0 0 C2 3 2 3 1.625 6.1875 C1.41875 7.115625 1.2125 8.04375 1 9 C0.34 9 -0.32 9 -1 9 C-0.690625 10.1446875 -0.690625 10.1446875 -0.375 11.3125 C0 14 0 14 -2 17 C-3.80789124 10.91891127 -1.83657235 5.83137661 0 0 Z " fill="#1D2328" transform="translate(647,327)"/>
<path d="M0 0 C0.28875 0.61875 0.5775 1.2375 0.875 1.875 C1.93720042 4.13325765 1.93720042 4.13325765 4 6 C1.69 6.66 -0.62 7.32 -3 8 C-2.37240135 5.07120629 -1.41377341 2.63904371 0 0 Z " fill="#1E252A" transform="translate(539,410)"/>
<path d="M0 0 C0.92538169 3.70152678 1.08174162 4.63458162 0 8 C0.66 8.33 1.32 8.66 2 9 C0.35 9.66 -1.3 10.32 -3 11 C-2.01 7.37 -1.02 3.74 0 0 Z " fill="#0D1013" transform="translate(439,448)"/>
<path d="M0 0 C-0.66 1.65 -1.32 3.3 -2 5 C-2.66 4.01 -3.32 3.02 -4 2 C-5.65 2.33 -7.3 2.66 -9 3 C-6.07868595 -0.19953443 -4.37453972 -1.45817991 0 0 Z " fill="#0B0E12" transform="translate(499,386)"/>
<path d="M0 0 C2.78637633 4.1795645 1.79562512 6.14668677 1 11 C0.01 10.67 -0.98 10.34 -2 10 C-1.34 6.7 -0.68 3.4 0 0 Z " fill="#22282D" transform="translate(444,425)"/>
<path d="M0 0 C0.66 0.33 1.32 0.66 2 1 C1.01 2.485 1.01 2.485 0 4 C-3.125 4.1875 -3.125 4.1875 -6 4 C-6.33 4.66 -6.66 5.32 -7 6 C-7 5.01 -7 4.02 -7 3 C-4.69631264 1.93347808 -2.35981813 0.93578995 0 0 Z " fill="#EBEDED" transform="translate(484,370)"/>
<path d="M0 0 C0.66 0 1.32 0 2 0 C2 0.66 2 1.32 2 2 C1.01 2.33 0.02 2.66 -1 3 C-0.67 2.01 -0.34 1.02 0 0 Z M-2 3 C-1.67 3.66 -1.34 4.32 -1 5 C-1.99 6.485 -1.99 6.485 -3 8 C-3.66 8 -4.32 8 -5 8 C-3.125 4.125 -3.125 4.125 -2 3 Z " fill="#F0F1F1" transform="translate(515,490)"/>
<path d="M0 0 C0.93065133 2.60582371 1.14917407 3.64198224 0.0625 6.25 C-0.4634375 7.11625 -0.4634375 7.11625 -1 8 C-1.66 6.02 -2.32 4.04 -3 2 C-2.01 1.34 -1.02 0.68 0 0 Z " fill="#24272C" transform="translate(596,344)"/>
</svg>
